# xmcd CD database file
#
# Track frame offsets:
#	150
#	18046
#	39407
#	74743
#	95553
#	120872
#	142355
#	174071
#
# Disc length: 2820 seconds
#
# Revision: 0
# Processed by: cddbd v1.5.1PL0 Copyright (c) Steve Scherf et al.
# Submitted via: CDex 1.51
#
DISCID=640b0208
DTITLE=Drawback Slim - Blues from the Wild West
DYEAR=2001
DGENRE=Blues
TTITLE0=The Plane (LG-Norman Sylvester, Jeff Barnes, Janice Scroggins)
TTITLE1=I Just Wanna Make Love To You (Jeff Barnes, Janice Scroggins)
TTITLE2=2000, Hootchie Cootchie Man (LG-Robert Rude,Jeff Barnes, Janice Scroggins)
TTITLE3=I Knew (LG-Jeff Barnes, Janice Scroggins)
TTITLE4=Crepe Suizette (LG-Robert Rude, Jeff Barnes, Janice Scroggins)
TTITLE5=Your Man (Roth Patterson LG)
TTITLE6=Answering Machine Bules (LG-Jeff Barnes, Janice Scroggins)
TTITLE7=Hound Dog (LG-Robert Rude)
EXTD=YEAR: 2001
EXTT0=
EXTT1=
EXTT2=
EXTT3=
EXTT4=
EXTT5=
EXTT6=
EXTT7=
PLAYORDER=
